# xmcd
#
# Track frame offsets:
#	151
#	12832
#	26785
#	40286
#	51688
#	65640
#	81991
#	98193
#	110569
#	122423
#
# Disc length: 1851 seconds
#
# Revision: 0
# Processed by: cddbd v1.4PL0 Copyright (c) Steve Scherf et al.
# Submitted via: dBpowerAMP V4.0
#
DISCID=8a07390a
DTITLE=Dayna Wills - Swingin' After Midnight Bob's Sister Helen's Kid Vol. 2
DYEAR=1900
DGENRE=Country
TTITLE0=Midnight
TTITLE1=Medley
TTITLE2=Goin' Away Party
TTITLE3=My Confession
TTITLE4=Looking Over My Shoulder
TTITLE5=San Antonio Rose
TTITLE6=Keeper Of My Heart
TTITLE7=Sooner Or Later
TTITLE8=Deep Water
TTITLE9=Misery
EXTD=
EXTT0=
EXTT1=
EXTT2=
EXTT3=
EXTT4=
EXTT5=
EXTT6=
EXTT7=
EXTT8=
EXTT9=
PLAYORDER=
